<?xml version="1.0" encoding="iso-8859-1"?>
<!-- Generator: Adobe Illustrator 19.0.0, SVG Export Plug-In . SVG Version: 6.00 Build 0)  -->
<svg version="1.1" id="Capa_1" xmlns="http://www.w3.org/2000/svg" xmlns:xlink="http://www.w3.org/1999/xlink" x="0px" y="0px"
	 viewBox="0 0 512.208 512.208" style="enable-background:new 0 0 512.208 512.208;" xml:space="preserve">
<g transform="translate(0 -1)">
	<g transform="translate(0 2)">
		<circle style="fill:#4CAF50;" cx="255.853" cy="50.304" r="42.667"/>
		<g>
			<path style="fill:#FDD834;" d="M127.853,348.971c0,32.99-26.744,59.733-59.733,59.733c-4.302-0.014-8.592-0.471-12.8-1.365
				c-27.454-5.973-47.035-30.271-47.035-58.368c0-28.097,19.581-52.395,47.035-58.368c4.208-0.894,8.498-1.351,12.8-1.365
				c15.842,0,31.036,6.293,42.238,17.495C121.56,317.935,127.853,333.128,127.853,348.971z"/>
			<path style="fill:#FDD834;" d="M315.586,442.837c0,15.842-6.293,31.036-17.495,42.238
				c-11.202,11.202-26.396,17.495-42.238,17.495c-4.302-0.014-8.592-0.471-12.8-1.365c-27.454-5.973-47.035-30.271-47.035-58.368
				c0-28.097,19.581-52.395,47.035-58.368c4.208-0.894,8.498-1.351,12.8-1.365c15.842,0,31.036,6.293,42.238,17.495
				C309.293,411.802,315.586,426.995,315.586,442.837z"/>
			<path style="fill:#FDD834;" d="M503.32,348.971c0,15.842-6.293,31.036-17.495,42.238c-11.202,11.202-26.396,17.495-42.238,17.495
				c-4.302-0.014-8.592-0.471-12.8-1.365c-27.454-5.973-47.035-30.271-47.035-58.368c0-28.097,19.581-52.395,47.035-58.368
				c4.208-0.894,8.498-1.351,12.8-1.365c15.842,0,31.036,6.293,42.238,17.495C497.027,317.935,503.32,333.128,503.32,348.971z"/>
		</g>
		<g>
			<ellipse style="fill:#FFEB3A;" cx="55.32" cy="348.971" rx="46.933" ry="58.368"/>
			<ellipse style="fill:#FFEB3A;" cx="243.053" cy="442.837" rx="46.933" ry="58.368"/>
			<ellipse style="fill:#FFEB3A;" cx="430.786" cy="348.971" rx="46.933" ry="58.368"/>
		</g>
	</g>
	<g>
		<path d="M307.54,206.023c-4.71,1.587-9.574,2.97-14.507,4.122c-4.548,1.112-7.351,5.681-6.281,10.239
			c1.07,4.558,5.613,7.403,10.181,6.375c5.402-1.271,10.795-2.807,16.009-4.565c4.364-1.577,6.668-6.351,5.187-10.748
			s-6.203-6.806-10.632-5.422H307.54z"/>
		<path d="M214.552,226.717c0.642,0.157,1.301,0.234,1.963,0.23c4.337,0.002,7.986-3.25,8.481-7.558
			c0.495-4.309-2.32-8.304-6.544-9.286c-4.847-1.135-9.711-2.56-14.447-4.13c-2.907-1.055-6.158-0.454-8.496,1.571
			s-3.398,5.156-2.77,8.184c0.628,3.028,2.846,5.48,5.796,6.408C203.8,223.909,209.167,225.454,214.552,226.717z"/>
		<path d="M44.005,326.838c-6.414,6.393-10.019,15.076-10.019,24.132c0,9.056,3.605,17.739,10.019,24.132
			c2.133,2.268,5.332,3.194,8.346,2.417c3.015-0.777,5.367-3.134,6.138-6.151c0.771-3.016-0.162-6.213-2.435-8.341
			c-6.657-6.664-6.657-17.46,0-24.124c6.747-6.453,17.377-6.453,24.124,0c6.651,6.663,6.651,17.453,0,24.115
			c-2.272,2.128-3.206,5.325-2.435,8.341c0.771,3.016,3.123,5.374,6.138,6.151c3.015,0.777,6.213-0.149,8.346-2.417
			c6.411-6.393,10.014-15.074,10.014-24.128s-3.603-17.735-10.014-24.128C78.737,313.949,57.495,313.949,44.005,326.838z"/>
		<path d="M443.587,282.704c-9.945,0.012-19.766,2.212-28.766,6.443L289.91,90.431c15.865-14.133,21.353-36.596,13.791-56.452
			C296.14,14.123,277.1,1,255.853,1s-40.286,13.123-47.848,32.979c-7.562,19.856-2.074,42.319,13.791,56.452L96.886,289.147
			c-32.624-15.025-71.307-2.106-88.355,29.508s-6.589,71.033,23.889,90.037s70.478,11.047,91.362-18.175
			c20.884-29.221,15.46-69.643-12.389-92.325l56.465-89.822l0.367,0.213c1.275,0.723,2.716,1.103,4.181,1.101
			c3.8,0.012,7.145-2.501,8.191-6.154c1.046-3.653-0.463-7.556-3.694-9.556l59.324-94.404c3.566,1.472,7.288,2.534,11.093,3.166
			v111.701c-4.474,0.247-7.975,3.946-7.975,8.427c0,4.48,3.501,8.18,7.975,8.427v145.92c-35.76,4.505-61.856,36.034-59.599,72.006
			s32.09,63.992,68.133,63.992s65.876-28.02,68.133-63.992c2.257-35.972-23.839-67.501-59.599-72.006v-145.92
			c4.555-0.376,8.005-4.274,7.825-8.841c-0.143-4.293-3.537-7.768-7.825-8.013V102.736c3.806-0.632,7.527-1.694,11.093-3.166
			l59.358,94.387c-3.561,2.593-4.563,7.47-2.313,11.256s7.012,5.239,10.992,3.353l0.367-0.213l56.465,89.822
			c-25.659,21.042-32.455,57.495-16.104,86.37c16.351,28.875,51.107,41.798,82.351,30.619
			c31.244-11.179,49.912-43.217,44.234-75.911C505.149,306.558,476.77,282.692,443.587,282.704z M119.32,350.971
			c0.078,23.447-15.731,43.971-38.421,49.882c-22.69,5.911-46.503-4.293-57.874-24.798c-11.372-20.505-7.416-46.108,9.614-62.225
			c17.03-16.117,42.812-18.657,62.66-6.174h0.051C110.253,317.015,119.305,333.372,119.32,350.971z M255.853,18.171
			c18.851,0,34.133,15.282,34.133,34.133s-15.282,34.133-34.133,34.133S221.72,71.155,221.72,52.304S237.002,18.171,255.853,18.171z
			 M307.053,444.837c0,28.277-22.923,51.2-51.2,51.2s-51.2-22.923-51.2-51.2c0-28.277,22.923-51.2,51.2-51.2
			C284.118,393.665,307.025,416.572,307.053,444.837z M443.587,402.171c-22.806,0.016-42.868-15.065-49.189-36.977
			c-6.322-21.912,2.624-45.362,21.934-57.496h0.06c18.423-11.651,42.202-10.36,59.255,3.217
			c17.053,13.576,23.641,36.461,16.416,57.027S465.384,402.243,443.587,402.171z"/>
		<path d="M419.471,326.838c-6.414,6.393-10.019,15.076-10.019,24.132c0,9.056,3.605,17.739,10.019,24.132
			c2.133,2.268,5.332,3.194,8.346,2.417c3.015-0.777,5.367-3.134,6.138-6.151c0.771-3.016-0.163-6.213-2.435-8.341
			c-6.657-6.664-6.657-17.46,0-24.124c6.747-6.453,17.377-6.453,24.124,0c6.651,6.663,6.651,17.453,0,24.115
			c-2.272,2.128-3.206,5.325-2.435,8.341c0.771,3.016,3.123,5.374,6.138,6.151s6.213-0.149,8.346-2.417
			c6.411-6.393,10.014-15.074,10.014-24.128s-3.603-17.735-10.014-24.128C454.203,313.949,432.961,313.949,419.471,326.838z"/>
		<path d="M231.738,420.705c-6.414,6.393-10.019,15.076-10.019,24.132c0,9.056,3.605,17.739,10.019,24.132
			c2.133,2.268,5.332,3.194,8.346,2.417c3.015-0.777,5.367-3.134,6.138-6.151c0.771-3.016-0.162-6.213-2.435-8.341
			c-6.657-6.664-6.657-17.46,0-24.124c6.747-6.453,17.377-6.453,24.124,0c6.651,6.663,6.651,17.453,0,24.115
			c-2.272,2.128-3.206,5.325-2.435,8.341c0.771,3.016,3.123,5.374,6.138,6.151s6.213-0.149,8.346-2.417
			c6.411-6.393,10.014-15.074,10.014-24.128s-3.603-17.735-10.014-24.128C266.47,407.815,245.228,407.815,231.738,420.705z"/>
	</g>
</g>
<g>
</g>
<g>
</g>
<g>
</g>
<g>
</g>
<g>
</g>
<g>
</g>
<g>
</g>
<g>
</g>
<g>
</g>
<g>
</g>
<g>
</g>
<g>
</g>
<g>
</g>
<g>
</g>
<g>
</g>
</svg>
