<svg height="512" viewBox="0 0 64 64" width="512" xmlns="http://www.w3.org/2000/svg" xmlns:xlink="http://www.w3.org/1999/xlink"><linearGradient id="New_Gradient_Swatch" gradientTransform="matrix(.996 .087 -.087 .996 .684 -1.521)" gradientUnits="userSpaceOnUse" x1="17.812" x2="17.812" y1="63.655" y2=".027"><stop offset="0" stop-color="#e93e3a"/><stop offset=".35" stop-color="#ed683c"/><stop offset=".7" stop-color="#f3903f"/><stop offset="1" stop-color="#fdc70c"/></linearGradient><linearGradient id="New_Gradient_Swatch-2" gradientTransform="matrix(.996 .088 -.088 .996 1.239 -1.121)" x1="13.354" x2="13.354" xlink:href="#New_Gradient_Swatch" y1="63.655" y2=".027"/><linearGradient id="New_Gradient_Swatch-3" gradientTransform="matrix(.996 .087 -.087 .996 1.72 -1.741)" x1="20.851" x2="20.851" xlink:href="#New_Gradient_Swatch" y1="63.655" y2=".027"/><linearGradient id="New_Gradient_Swatch-4" gradientTransform="matrix(.996 .088 -.088 .996 2.29 -1.255)" x1="15.396" x2="15.396" xlink:href="#New_Gradient_Swatch" y1="63.655" y2=".027"/><linearGradient id="New_Gradient_Swatch-5" gradientTransform="matrix(.996 .088 -.088 .996 2.802 -1.629)" x1="19.904" x2="19.904" xlink:href="#New_Gradient_Swatch" y1="63.655" y2=".027"/><linearGradient id="New_Gradient_Swatch-6" gradientTransform="matrix(.996 .087 -.087 .996 4.18 -1.239)" x1="16.318" x2="16.318" xlink:href="#New_Gradient_Swatch" y1="63.655" y2=".027"/><linearGradient id="New_Gradient_Swatch-7" gradientTransform="matrix(.996 .087 -.087 .996 4.15 -1.934)" x1="24.288" x2="24.288" xlink:href="#New_Gradient_Swatch" y1="63.655" y2=".027"/><linearGradient id="New_Gradient_Swatch-8" gradientTransform="matrix(.996 .087 -.087 .996 4.513 -1.602)" x1="20.651" x2="20.651" xlink:href="#New_Gradient_Swatch" y1="63.655" y2=".027"/><linearGradient id="New_Gradient_Swatch-9" gradientTransform="matrix(.087 .996 -.996 .087 58.1 -36.881)" x1="49.18" x2="49.18" xlink:href="#New_Gradient_Swatch" y1="63.655" y2=".027"/><linearGradient id="New_Gradient_Swatch-10" gradientTransform="matrix(.087 .996 -.996 .087 58.597 -26.342)" x1="43.676" x2="43.676" xlink:href="#New_Gradient_Swatch" y1="63.655" y2=".027"/><linearGradient id="New_Gradient_Swatch-11" gradientTransform="matrix(.087 .996 -.996 .087 71.071 -26.746)" x1="50.126" x2="50.126" xlink:href="#New_Gradient_Swatch" y1="63.655" y2=".027"/><linearGradient id="New_Gradient_Swatch-12" gradientTransform="matrix(.087 .996 -.996 .087 89.646 7.534)" x1="40.712" x2="40.712" xlink:href="#New_Gradient_Swatch" y1="63.655" y2=".027"/><linearGradient id="New_Gradient_Swatch-13" gradientTransform="matrix(.087 .996 -.996 .087 97.616 .231)" x1="48.682" x2="48.682" xlink:href="#New_Gradient_Swatch" y1="63.655" y2=".027"/><linearGradient id="New_Gradient_Swatch-14" gradientTransform="matrix(.087 .996 -.996 .087 97.281 7.865)" x1="44.349" x2="44.349" xlink:href="#New_Gradient_Swatch" y1="63.655" y2=".027"/><linearGradient id="New_Gradient_Swatch-15" x1="34" x2="34" xlink:href="#New_Gradient_Swatch" y1="63.655" y2=".027"/><linearGradient id="New_Gradient_Swatch-16" x1="40" x2="40" xlink:href="#New_Gradient_Swatch" y1="63.655" y2=".027"/><linearGradient id="New_Gradient_Swatch-17" x1="59" x2="59" xlink:href="#New_Gradient_Swatch" y1="63.655" y2=".027"/><linearGradient id="New_Gradient_Swatch-19" x1="5" x2="5" xlink:href="#New_Gradient_Swatch" y1="63.655" y2=".027"/><linearGradient id="New_Gradient_Swatch-21" x1="27" x2="27" xlink:href="#New_Gradient_Swatch" y1="63.655" y2=".027"/><linearGradient id="New_Gradient_Swatch-22" x1="31" x2="31" xlink:href="#New_Gradient_Swatch" y1="63.655" y2=".027"/><linearGradient id="New_Gradient_Swatch-23" x1="39" x2="39" xlink:href="#New_Gradient_Swatch" y1="63.655" y2=".027"/><linearGradient id="New_Gradient_Swatch-24" x1="33.367" x2="33.367" xlink:href="#New_Gradient_Swatch" y1="63.655" y2=".027"/><path d="m16.813 6.096h2v2h-2z" fill="url(#New_Gradient_Swatch)" transform="matrix(.996 -.087 .087 .996 -.549 1.575)"/><path d="m12.355 12.508h2v2h-2z" fill="url(#New_Gradient_Swatch-2)" transform="matrix(.996 -.088 .088 .996 -1.136 1.226)"/><path d="m19.851 17.876h2.001v2h-2.001z" fill="url(#New_Gradient_Swatch-3)" transform="matrix(.996 -.087 .087 .996 -1.562 1.884)"/><path d="m14.397 24.376h2v2h-2z" fill="url(#New_Gradient_Swatch-4)" transform="matrix(.996 -.088 .088 .996 -2.171 1.452)"/><path d="m18.904 30.004h2v2h-2z" fill="url(#New_Gradient_Swatch-5)" transform="matrix(.996 -.088 .088 .996 -2.648 1.869)"/><path d="m14.318 46.38h4.001v2h-4.001z" fill="url(#New_Gradient_Swatch-6)" transform="matrix(.996 -.087 .087 .996 -4.057 1.598)"/><path d="m22.287 45.682h4.001v2h-4.001z" fill="url(#New_Gradient_Swatch-7)" transform="matrix(.996 -.087 .087 .996 -3.966 2.288)"/><path d="m18.652 50.015h4v2h-4z" fill="url(#New_Gradient_Swatch-8)" transform="matrix(.996 -.087 .087 .996 -4.356 1.988)"/><path d="m48.18 12.27h2v2h-2z" fill="url(#New_Gradient_Swatch-9)" transform="matrix(.087 -.996 .996 .087 31.662 61.102)"/><path d="m42.676 17.811h2v2h-2z" fill="url(#New_Gradient_Swatch-10)" transform="matrix(.087 -.996 .996 .087 21.119 60.675)"/><path d="m49.126 24.399h2v2h-2z" fill="url(#New_Gradient_Swatch-11)" transform="matrix(.087 -.996 .996 .087 20.466 73.127)"/><path d="m39.713 50.682h2v4.001h-2z" fill="url(#New_Gradient_Swatch-12)" transform="matrix(.087 -.996 .996 .087 -15.317 88.649)"/><path d="m47.682 51.379h2v4.001h-2z" fill="url(#New_Gradient_Swatch-13)" transform="matrix(.087 -.996 .996 .087 -8.737 97.225)"/><path d="m43.349 55.015h2v4h-2z" fill="url(#New_Gradient_Swatch-14)" transform="matrix(.087 -.996 .996 .087 -16.315 96.225)"/><path d="m33 6h2v2h-2z" fill="url(#New_Gradient_Swatch-15)"/><path d="m39 2h2v2h-2z" fill="url(#New_Gradient_Swatch-16)"/><path d="m58 8h2v2h-2z" fill="url(#New_Gradient_Swatch-17)"/><path d="m58 43h2v2h-2z" fill="url(#New_Gradient_Swatch-17)"/><path d="m4 33h2v2h-2z" fill="url(#New_Gradient_Swatch-19)"/><path d="m4 37h2v2h-2z" fill="url(#New_Gradient_Swatch-19)"/><path d="m26 58h2v2h-2z" fill="url(#New_Gradient_Swatch-21)"/><path d="m30 58h2v2h-2z" fill="url(#New_Gradient_Swatch-22)"/><path d="m44.657 40.657a8.01 8.01 0 1 0 -5.657 2.343 8.012 8.012 0 0 0 5.657-2.343zm-1.986-10.367-.128 1.472 1.574.137a5.789 5.789 0 0 1 -1.544 7.891l-4.831-.42-.082-2.013 6.353.556.174-1.992-6.609-.578-.164-4.03 3.137.274.174-1.992-3.394-.3v-.032a5.735 5.735 0 0 1 5.341 1.023zm-7.914.467a6.02 6.02 0 0 1 .612-.5l.4 9.791a5.93 5.93 0 0 1 -1.013-.8 6.008 6.008 0 0 1 .001-8.491z" fill="url(#New_Gradient_Swatch-23)"/><path d="m61.627 51.971-2.971-2.971h1.344v-2h-2v1.344l-5.565-5.566a.972.972 0 0 0 -.194-.128l2.382.206a.864.864 0 0 0 .088 0 1 1 0 0 0 .988-.855l3.03-20.611a8.912 8.912 0 0 0 .11-1.3 11.809 11.809 0 0 0 -1.757-6.729 12.046 12.046 0 0 0 -10.676-5.71l-.912.04a10.989 10.989 0 0 0 -10.583 11.44l.188 4.536a11.848 11.848 0 0 0 -6.051 4.633l-.418-14.854a12.749 12.749 0 0 0 -.109-1.314 12.014 12.014 0 0 0 -14.421-10.089l-.893.2a11.008 11.008 0 0 0 -7.25 5.323 10.847 10.847 0 0 0 -1.357 6.722 8.593 8.593 0 0 0 .169 1.056l4.54 20.729a1 1 0 0 0 .976.787.864.864 0 0 0 .088 0l16.652-1.46a12.079 12.079 0 0 0 .225 2l-16.7 1.458a1 1 0 0 0 -.909 1.084l.61 6.969a10.011 10.011 0 0 0 9.959 9.127q.433 0 .874-.038a10 10 0 0 0 9.089-10.833l-.2-2.275c.176.2.348.406.54.6a11.9 11.9 0 0 0 4.728 2.9l-.419 4.78a10 10 0 0 0 9.091 10.828q.443.038.879.038a9.991 9.991 0 0 0 9.285-6.3l1.894 1.893a2 2 0 0 0 2.828 0l2.828-2.831a2 2 0 0 0 0-2.829zm-8.485-5.657-2.828 2.828-1.414-1.414 2.828-2.828zm-2.424-13.842 4.305.381-.583 3.965-3.552-.31a12.085 12.085 0 0 0 -.17-4.036zm-3.233 11.013c.239-.238.458-.49.672-.743l1.45 1.45-1.415 1.415-1.45-1.45c.258-.214.505-.433.743-.672zm3.536-.707-.257-.257.569.05a.977.977 0 0 0 -.312.207zm-1.321-2.357a11.963 11.963 0 0 0 .782-1.942l3.669.321-.292 1.982zm-11.051-27.069 7.455.653.174-1.992-5.8-.508a8.925 8.925 0 0 1 5.1-1.816l.912-.04a10.063 10.063 0 0 1 7.523 3.04l-1.754-.154-.174 1.992 3.515.308a9.789 9.789 0 0 1 1.211 4.122l-10.056-.881-.174 1.992 10.191.893c-.007.05-.009.091-.017.143l-.562 3.821-2.993-.261-.174 1.992 2.87.251-.583 3.964-5.232-.463a11.915 11.915 0 0 0 -2.6-3.893c-.139-.139-.288-.26-.432-.391l.175-1.98-3.965-.351a12.069 12.069 0 0 0 -6.182-.623l-.165-3.947 3.685.323.173-1.992-3.756-.329a8.89 8.89 0 0 1 1.635-3.873zm-28 19.466 6.351-.556-.174-1.992-6.613.578-.862-3.94 3.141-.275-.174-1.992-3.4.3-.859-3.941 9.89-.865-.174-1.992-10.147.888-.863-3.94 3.688-.323-.174-1.993-3.748.325a8.85 8.85 0 0 1 .935-4.1l7.445-.65-.174-1.993-5.788.506a8.976 8.976 0 0 1 4.688-2.663l.892-.2a10.025 10.025 0 0 1 7.937 1.688l-1.751.153.174 1.992 3.511-.31a9.864 9.864 0 0 1 1.915 3.848l-10.061.88.174 1.992 10.187-.891c0 .05.011.1.012.146l.109 3.859-2.986.261.174 1.992 2.868-.251.113 4.006-8.609.753.174 1.992 8.491-.743.113 4.006-4.271.374.173 1.992 4.154-.363.047 1.646c-.02.12-.036.241-.053.362l-16.048 1.4zm17.01 6.549.175 1.986-15.934 1.394-.173-1.988zm-1.317 11.811a8 8 0 0 1 -14.1-4.445l-.174-1.994 15.936-1.394.176 1.992a7.96 7.96 0 0 1 -1.838 5.841zm5.587-23.249a10 10 0 1 1 0 14.142 9.965 9.965 0 0 1 0-14.142zm7.071 19.065a12.037 12.037 0 0 0 4.907-1.057l1.955.168.916.916a.987.987 0 0 0 -.168 1.16l-9.445-.83.044-.5a12.1 12.1 0 0 0 1.791.143zm5.087 13.006a8 8 0 0 1 -7.271-8.667l.175-1.993 11.727 1.03 3.773 3.774a7.981 7.981 0 0 1 -8.404 5.856zm13.3-3.791-5.657-5.657 2.828-2.828 5.658 5.656z" fill="url(#New_Gradient_Swatch-24)"/></svg>